<?xml version="1.0" encoding="utf-8"?>
<!-- Generator: Adobe Illustrator 27.5.0, SVG Export Plug-In . SVG Version: 6.00 Build 0)  -->
<svg version="1.1" id="Layer_1" xmlns="http://www.w3.org/2000/svg" xmlns:xlink="http://www.w3.org/1999/xlink" x="0px" y="0px"
	 viewBox="0 0 900 900" style="enable-background:new 0 0 900 900;" xml:space="preserve">
<g>
	<path style="opacity:0.45;fill:#718EA5;" d="M809.681,708.569c-54.305-144.33-61.648-227.101-61.648-227.101H642.835
		c0,0-9.393,90.277-74.132,263.676l240.977,0.058v0.45h52.766v-89.771h-52.766V708.569z"/>
	<polygon style="opacity:0.45;fill:#718EA5;" points="381.045,479.275 376.881,479.275 376.881,489.362 381.045,489.362 
		381.045,677.002 407.541,677.002 407.541,489.362 411.705,489.362 411.705,479.275 407.541,479.275 	"/>
	<g id="XMLID_10333_">
		<path id="XMLID_10463_" style="fill:#F7F2EC;stroke:#640917;stroke-width:2.5;stroke-miterlimit:10;" d="M235.091,380.664
			c0-8.772-7.111-15.883-15.883-15.883c-6.529,0-12.133,3.943-14.574,9.574c-0.445-0.037-0.892-0.068-1.347-0.068
			c-0.011,0-0.021,0.002-0.032,0.002c-1.004-15.559-13.935-27.871-29.748-27.871c-1.352,0-2.68,0.099-3.984,0.273
			c-3.542-12.513-15.039-21.684-28.686-21.684c-16.468,0-29.818,13.35-29.818,29.818s13.35,29.818,29.818,29.818
			c1.352,0,2.68-0.098,3.984-0.273c3.542,12.513,15.039,21.684,28.686,21.684c6.571,0,12.641-2.13,17.569-5.73
			c1.98,2.379,4.644,4.164,7.688,5.068c-0.878,1.454-1.392,3.153-1.392,4.976c0,5.332,4.323,9.655,9.655,9.655
			c4.64,0,8.512-3.274,9.44-7.637c0.072,0.002,0.142,0.011,0.215,0.011c5.333,0,9.655-4.323,9.655-9.655
			c0-2.658-1.08-5.058-2.818-6.801C230.193,394.059,235.091,387.94,235.091,380.664z"/>
		<path id="XMLID_10462_" style="opacity:0.13;fill:#640917;" d="M235.091,380.664c0-8.772-7.111-15.883-15.883-15.883
			c-6.529,0-12.133,3.943-14.574,9.574c-0.445-0.037-0.892-0.068-1.347-0.068c-0.011,0-0.021,0.002-0.032,0.002
			c-1.004-15.559-13.935-27.871-29.748-27.871c-1.352,0-2.68,0.099-3.984,0.273c-3.542-12.513-15.039-21.684-28.686-21.684
			c-16.468,0-29.818,13.35-29.818,29.818s13.35,29.818,29.818,29.818c1.352,0,2.68-0.098,3.984-0.273
			c3.542,12.513,15.039,21.684,28.686,21.684c6.571,0,12.641-2.13,17.569-5.73c1.98,2.379,4.644,4.164,7.688,5.068
			c-0.878,1.454-1.392,3.153-1.392,4.976c0,5.332,4.323,9.655,9.655,9.655c4.64,0,8.512-3.274,9.44-7.637
			c0.072,0.002,0.142,0.011,0.215,0.011c5.333,0,9.655-4.323,9.655-9.655c0-2.658-1.08-5.058-2.818-6.801
			C230.193,394.059,235.091,387.94,235.091,380.664z"/>
		<path id="XMLID_10460_" style="fill:#F7F2EC;" d="M608.126,340.6c0-8.907-6.561-16.262-15.11-17.548
			c-0.372-13.901-10.223-25.431-23.329-28.365c0.384-2.217,0.595-4.493,0.595-6.82c0-21.949-17.793-39.742-39.742-39.742
			c-1.056,0-2.098,0.054-3.132,0.134c-9.204-22.818-31.543-38.929-57.657-38.929c-19.578,0-37.032,9.06-48.427,23.205
			c-3.131-0.486-6.339-0.741-9.606-0.741c-18.765,0-35.575,8.327-46.973,21.473c-1.926-0.281-3.893-0.433-5.897-0.433
			c-22.33,0-40.432,18.102-40.432,40.432c0,16.707,10.134,31.045,24.59,37.208c-2.466,5.174-3.85,10.963-3.85,17.076
			c0,21.949,17.793,39.742,39.742,39.742c5.876,0,11.449-1.286,16.468-3.575c7.01,11.29,19.515,18.811,33.781,18.811
			c15.964,0,29.721-9.417,36.041-22.995c3.845,2.037,8.227,3.195,12.881,3.195c4.526,0,8.793-1.098,12.561-3.031
			c2.231,4.536,6.329,7.973,11.301,9.316c-1.507,3.168-2.353,6.712-2.353,10.454c0,13.457,10.909,24.365,24.365,24.365
			c8.12,0,15.307-3.976,19.735-10.083c3.583,2.072,7.74,3.264,12.177,3.264c2.299,0,4.521-0.325,6.629-0.921
			c0.412,0.116,0.829,0.223,1.252,0.319c13.124,2.972,26.173-5.259,29.144-18.383c1.261-5.57,0.499-11.123-1.793-15.901
			c6.2-2.774,10.526-8.984,10.526-16.215c0-3.562-1.059-6.873-2.864-9.654C604.33,353.264,608.126,347.377,608.126,340.6z"/>
		<path id="XMLID_10459_" style="fill:#FFFFFF;" d="M598.755,355.177c1.803,2.778,2.864,6.093,2.864,9.651
			c0,7.238-4.326,13.441-10.528,16.219c2.291,4.777,3.059,10.334,1.791,15.903c-1.633,7.19-6.288,12.917-12.32,16.134
			c0.999-1.877,1.767-3.9,2.255-6.069c1.255-5.569,0.5-11.113-1.791-15.902c6.19-2.766,10.516-8.981,10.516-16.207
			c0-3.57-1.048-6.873-2.864-9.651c5.581-2.998,9.383-8.884,9.383-15.671c0-8.908-6.568-16.256-15.111-17.548
			c-0.378-13.892-10.224-25.432-23.336-28.357c0.39-2.218,0.597-4.497,0.597-6.824c0-21.947-17.791-39.738-39.738-39.738
			c-1.06,0-2.096,0.049-3.132,0.134c-9.2-22.824-31.549-38.934-57.663-38.934c-19.571,0-37.033,9.066-48.427,23.202
			c-3.132-0.475-6.337-0.731-9.602-0.731c-18.766,0-35.571,8.323-46.977,21.471c-1.926-0.28-3.888-0.439-5.886-0.439
			c-8.591,0-16.561,2.681-23.116,7.251c7.311-10.468,19.449-17.316,33.182-17.316c2.01,0,3.973,0.146,5.898,0.426
			c11.394-13.148,28.21-21.471,46.977-21.471c3.266,0,6.47,0.256,9.602,0.743c11.394-14.148,28.844-23.214,48.427-23.214
			c26.114,0,48.451,16.122,57.664,38.934c1.023-0.085,2.071-0.134,3.131-0.134c21.947,0,39.738,17.791,39.738,39.738
			c0,2.327-0.207,4.606-0.597,6.824c13.112,2.937,22.958,14.465,23.336,28.369c8.542,1.28,15.099,8.64,15.099,17.548
			C608.126,346.293,604.336,352.179,598.755,355.177z"/>
		<path id="XMLID_10458_" style="opacity:0.13;fill:#640917;" d="M593.436,394.283c-0.069,1.305-0.257,2.619-0.563,3.943
			c-2.965,13.124-16.019,21.355-29.142,18.381c-0.415-0.089-0.84-0.198-1.245-0.316c-2.115,0.593-4.338,0.919-6.631,0.919
			c-4.437,0-8.598-1.186-12.175-3.261c-4.427,6.107-11.621,10.08-19.735,10.08c-13.46,0-24.369-10.91-24.369-24.359
			c0-3.745,0.85-7.293,2.352-10.455c-4.971-1.344-9.072-4.783-11.295-9.319c-3.775,1.937-8.034,3.034-12.56,3.034
			c-4.655,0-9.042-1.156-12.886-3.202c-6.324,13.578-20.081,22.996-36.04,22.996c-14.27,0-26.771-7.52-33.777-18.806
			c-5.02,2.283-10.594,3.577-16.474,3.577c-21.948,0-39.736-17.798-39.736-39.746c0-6.117,1.384-11.898,3.844-17.076
			c-14.457-6.167-24.587-20.506-24.587-37.206c0-10.337,3.874-19.755,10.248-26.909c-0.702,2.975-1.067,6.068-1.067,9.25
			c0,16.711,10.129,31.05,24.587,37.206c-2.461,5.178-3.844,10.969-3.844,17.076c0,21.948,17.788,39.746,39.736,39.746
			c5.88,0,11.453-1.285,16.473-3.577c7.007,11.295,19.507,18.816,33.777,18.816c15.96,0,29.715-9.418,36.04-22.996
			c3.844,2.036,8.232,3.192,12.886,3.192c4.526,0,8.785-1.097,12.56-3.034c2.224,4.536,6.324,7.975,11.295,9.319
			c-1.502,3.172-2.352,6.71-2.352,10.455c0,13.46,10.91,24.369,24.37,24.369c8.113,0,15.307-3.983,19.735-10.09
			c3.577,2.075,7.738,3.271,12.175,3.271c2.293,0,4.516-0.326,6.631-0.929c0.405,0.119,0.83,0.227,1.245,0.326
			C580.391,400.647,587.852,398.7,593.436,394.283z"/>
		<path style="fill:#F7F2EC;stroke:#640917;stroke-width:2.5;stroke-miterlimit:10;" d="M346.96,744.93l-132.63-0.03l-97.2-0.03
			c58.28-156.12,66.74-237.41,66.74-237.41h94.72C278.59,507.46,286.32,594.67,346.96,744.93z"/>
		<path style="opacity:0.13;fill:#640917;" d="M214.33,507.46V744.9l-97.2-0.03c58.28-156.12,66.74-237.41,66.74-237.41H214.33z"/>
		
			<rect id="XMLID_10455_" x="196.108" y="414.82" style="fill:#F7F2EC;stroke:#640917;stroke-width:2.5;stroke-miterlimit:10;" width="30.348" height="226.473"/>
		
			<rect id="XMLID_10454_" x="196.108" y="514.984" style="fill:#E25959;stroke:#640917;stroke-width:2.5;stroke-linecap:round;stroke-miterlimit:10;" width="30.348" height="126.309"/>
		
			<path id="XMLID_10453_" style="fill:none;stroke:#640917;stroke-width:2.5;stroke-linecap:round;stroke-linejoin:round;stroke-miterlimit:10;" d="
			M134.844,602.629c0,0,241.096,49.105,469.714,0"/>
		
			<path id="XMLID_10452_" style="fill:none;stroke:#640917;stroke-width:2.5;stroke-linecap:round;stroke-linejoin:round;stroke-miterlimit:10;" d="
			M133.689,612.705c0,0,241.096,49.105,469.715,0"/>
		<polygon id="XMLID_10451_" style="opacity:0.13;fill:#640917;" points="332.634,641.795 273.518,641.293 281.539,530.446 
			293.612,588.441 		"/>
		<path style="fill:#F7F2EC;stroke:#640917;stroke-width:2.5;stroke-miterlimit:10;" d="M718.87,745.14l-270.34-0.06l-63.01-0.02
			c84.54-226.45,96.81-344.35,96.81-344.35h137.38C619.71,400.71,630.92,527.2,718.87,745.14z"/>
		<rect id="XMLID_10343_" x="481.055" y="399.792" style="fill:#F7F2EC;" width="140.614" height="15.751"/>
		<path style="fill:#FFFFFF;" d="M698.057,742.981c-87.951-217.935-97.644-342.269-97.644-342.269h-30.625
			c0,0,9.692,124.329,97.638,342.253L698.057,742.981z"/>
		<g id="XMLID_10439_">
			
				<path id="XMLID_10448_" style="fill:none;stroke:#640917;stroke-width:2.5;stroke-linecap:round;stroke-linejoin:round;stroke-miterlimit:10;" d="
				M597.901,745.263l27.157-168.326c0.232-1.435,2.296-1.435,2.527,0l27.157,168.326"/>
			
				<polyline id="XMLID_10447_" style="fill:none;stroke:#640917;stroke-width:2.5;stroke-linecap:round;stroke-linejoin:round;stroke-miterlimit:10;" points="
				621.241,600.602 634.399,619.169 614.446,642.12 642.363,668.53 604.559,704 			"/>
			
				<polyline id="XMLID_10446_" style="fill:none;stroke:#640917;stroke-width:2.5;stroke-linecap:round;stroke-linejoin:round;stroke-miterlimit:10;" points="
				631.404,600.602 618.755,619.169 638.124,642.253 610.276,668.562 648.077,704 			"/>
			
				<line id="XMLID_10445_" style="fill:none;stroke:#640917;stroke-width:2.5;stroke-linecap:round;stroke-linejoin:round;stroke-miterlimit:10;" x1="597.661" y1="602.629" x2="654.983" y2="602.629"/>
			
				<line id="XMLID_10444_" style="fill:none;stroke:#640917;stroke-width:2.5;stroke-linecap:round;stroke-linejoin:round;stroke-miterlimit:10;" x1="597.661" y1="612.584" x2="654.983" y2="612.584"/>
			
				<path id="XMLID_10443_" style="fill:#640917;stroke:#640917;stroke-width:2.5;stroke-linecap:round;stroke-linejoin:round;stroke-miterlimit:10;" d="
				M608.168,602.629c0,1.994-1.616,3.61-3.61,3.61c-1.994,0-3.61-1.616-3.61-3.61c0-1.994,1.616-3.61,3.61-3.61
				C606.552,599.019,608.168,600.636,608.168,602.629z"/>
			
				<path id="XMLID_10442_" style="fill:#640917;stroke:#640917;stroke-width:2.5;stroke-linecap:round;stroke-linejoin:round;stroke-miterlimit:10;" d="
				M653.129,602.629c0,1.994-1.616,3.61-3.61,3.61c-1.994,0-3.61-1.616-3.61-3.61c0-1.994,1.616-3.61,3.61-3.61
				C651.512,599.019,653.129,600.636,653.129,602.629z"/>
			
				<circle id="XMLID_10441_" style="fill:#640917;stroke:#640917;stroke-width:2.5;stroke-linecap:round;stroke-linejoin:round;stroke-miterlimit:10;" cx="649.519" cy="612.584" r="3.61"/>
			
				<path id="XMLID_10440_" style="fill:#640917;stroke:#640917;stroke-width:2.5;stroke-linecap:round;stroke-linejoin:round;stroke-miterlimit:10;" d="
				M608.168,612.584c0,1.994-1.616,3.61-3.61,3.61c-1.994,0-3.61-1.616-3.61-3.61s1.616-3.61,3.61-3.61
				C606.552,608.974,608.168,610.59,608.168,612.584z"/>
		</g>
		<path style="opacity:0.13;fill:#640917;" d="M523.29,400.71c0,0-5.08,117.9-40.06,344.35l-34.7,0.02l-63.01-0.02
			c84.54-226.45,96.81-344.35,96.81-344.35H523.29z"/>
		<g id="XMLID_10372_">
			
				<path id="XMLID_10438_" style="fill:#F7F7F7;stroke:#009EE6;stroke-width:3.6558;stroke-linecap:round;stroke-miterlimit:10;" d="
				M510.534,326.728"/>
			<path id="XMLID_10437_" style="opacity:0.13;fill:#640917;" d="M508.146,270.652c-0.533,0.27-1.055,0.54-1.56,0.84l7.895-3.902
				L508.146,270.652z"/>
			<path id="XMLID_10436_" style="opacity:0.13;fill:#640917;" d="M506.586,271.492l7.895-3.902l-6.335,3.061
				C507.613,270.922,507.09,271.192,506.586,271.492z"/>
			<path id="XMLID_10435_" style="fill:#F7F2EC;" d="M156.947,327.198c-0.157-1.483-0.241-2.987-0.241-4.511
				c0-23.456,19.015-42.471,42.471-42.471c13.849,0,26.146,6.632,33.899,16.889c5.386-4.529,12.334-7.261,19.922-7.261
				c15.248,0,27.914,11.02,30.492,25.528c8.403,0.526,15.06,7.488,15.06,16.023c0,1.734-0.282,3.401-0.791,4.966
				c11.967,0.545,21.509,10.39,21.509,22.491c0,5.056-1.684,9.706-4.495,13.466c4.456,2.394,7.487,7.097,7.487,12.509
				c0,4.137-1.781,7.849-4.605,10.444c3.32,1.726,5.591,5.19,5.591,9.19c0,5.721-4.638,10.359-10.359,10.359
				c-5.721,0-10.359-4.638-10.359-10.359c0-2.209,0.697-4.253,1.876-5.934c-2.497-0.666-4.725-1.985-6.479-3.779
				c-1.241,0.422-2.566,0.66-3.95,0.66c-3.65,0-6.918-1.6-9.169-4.126c-2.661,1.248-5.621,1.966-8.755,1.966
				c-4.891,0-9.377-1.707-12.917-4.546c-3.177,1.1-6.584,1.705-10.135,1.705c-8.14,0-15.542-3.144-21.071-8.278
				c-2.912,1.704-6.291,2.698-9.909,2.698c-8.735,0-16.13-5.699-18.696-13.577c-5.583,10.468-16.607,17.595-29.299,17.595
				c-18.329,0-33.188-14.859-33.188-33.188C140.837,343.574,147.296,333.002,156.947,327.198z"/>
			<path id="XMLID_10434_" style="fill:#FFFFFF;" d="M319.275,358.85c0,1.999-0.268,3.924-0.756,5.764
				c-2.474-9.31-10.772-16.232-20.753-16.695c0.5-1.572,0.792-3.229,0.792-4.972c0-8.53-6.666-15.488-15.062-16.024
				c-2.583-14.501-15.245-25.517-30.501-25.517c-7.58,0-14.525,2.73-19.911,7.25c-7.762-10.248-20.058-16.877-33.901-16.877
				c-23.458,0-41.227,17.341-42.236,35.424c-0.085,1.521-9.469,6.846-9.311,8.332c-8.079,4.85-4.605,16.271-6.287,25.898
				c-0.341-1.877-0.512-3.802-0.512-5.776c0-12.076,6.458-22.653,16.109-28.454c-0.158-1.487-0.244-2.986-0.244-4.509
				c0-23.458,19.022-42.48,42.48-42.48c13.843,0,26.139,6.641,33.901,16.889c5.386-4.521,12.332-7.263,19.911-7.263
				c15.257,0,27.918,11.028,30.501,25.529c8.396,0.524,15.062,7.494,15.062,16.024c0,1.743-0.292,3.4-0.792,4.972
				C309.733,336.904,319.275,346.75,319.275,358.85z"/>
			<path id="XMLID_10433_" style="opacity:0.13;fill:#640917;" d="M142.076,358.368c1.34,17.081,15.635,30.514,33.074,30.514
				c12.691,0,23.711-7.121,29.294-17.585c2.559,7.877,9.959,13.566,18.698,13.566c3.607,0,6.989-0.981,9.906-2.692
				c5.53,5.132,12.93,8.275,21.072,8.275c3.554,0,6.949-0.597,10.132-1.697c3.541,2.838,8.023,4.535,12.917,4.535
				c3.13,0,6.1-0.716,8.753-1.963c2.254,2.533,5.517,4.124,9.177,4.124c1.379,0,2.705-0.239,3.952-0.65
				c0.637,0.65,1.339,1.247,2.095,1.75c-0.743-1.419-1.154-3.024-1.154-4.734c0-2.215,0.703-4.257,1.87-5.941
				c-2.493-0.663-4.721-1.989-6.471-3.779c-1.247,0.424-2.573,0.663-3.952,0.663c-3.647,0-6.922-1.605-9.164-4.124
				c-2.666,1.247-5.623,1.963-8.766,1.963c-4.88,0-9.376-1.711-12.917-4.549c-3.169,1.101-6.578,1.711-10.132,1.711
				c-8.143,0-15.542-3.143-21.072-8.275c-2.904,1.697-6.286,2.692-9.906,2.692c-8.739,0-16.126-5.702-18.699-13.58
				c-5.583,10.476-16.603,17.598-29.294,17.598C158.705,376.191,147.606,368.964,142.076,358.368z"/>
			<path id="XMLID_10432_" style="fill:#F2B45A;stroke:#640917;stroke-width:2.5;stroke-miterlimit:10;" d="M605.981,652.356H590.14
				v-10.753c0-13.009-10.584-23.593-23.593-23.593h-3.048v-15.841h3.048c21.744,0,39.434,17.69,39.434,39.434V652.356z"/>
			<path id="XMLID_10431_" style="fill:none;stroke:#FFFFFF;stroke-width:7.3115;stroke-linecap:round;stroke-miterlimit:10;" d="
				M406.196,648.425c-2.156-8.093-3.306-16.597-3.306-25.369c0-5.204,0.405-10.314,1.184-15.299"/>
			
				<polygon id="XMLID_10430_" style="fill:#F7F2EC;stroke:#640917;stroke-width:2.5;stroke-linecap:round;stroke-linejoin:round;stroke-miterlimit:10;" points="
				484.838,580.56 482.665,580.56 482.665,546.656 411.205,580.348 411.205,546.656 339.295,580.56 339.295,745.263 
				556.748,745.101 556.748,580.56 556.748,609.813 			"/>
			
				<polygon id="XMLID_10429_" style="fill:#F7F2EC;stroke:#640917;stroke-width:2.5;stroke-linejoin:round;stroke-miterlimit:10;" points="
				500.949,580.56 498.776,580.56 498.776,546.656 427.316,580.348 427.316,546.656 355.406,580.56 355.406,745.263 
				570.859,745.101 570.859,580.56 570.859,546.656 			"/>
			<polygon id="XMLID_10428_" style="fill:#F7F2EC;stroke:#640917;stroke-width:2.5;stroke-miterlimit:10;" points="346.96,745.056 
				280.521,745.056 286.526,602.25 287.419,581.131 288.37,558.464 289.263,537.346 290.213,514.686 291.099,493.567 
				292.056,470.907 292.942,449.781 294.922,402.741 330.204,402.741 332.508,449.781 333.538,470.907 334.647,493.567 
				335.684,514.686 336.793,537.346 337.83,558.464 338.938,581.131 339.968,602.25 			"/>
			
				<polygon id="XMLID_10427_" style="fill:#E25959;stroke:#640917;stroke-width:2.5;stroke-linecap:round;stroke-miterlimit:10;" points="
				277.161,745.059 277.161,641.795 346.96,641.795 355.406,745.059 			"/>
			
				<rect id="XMLID_10426_" x="330.204" y="641.795" style="fill:#F7F2EC;stroke:#640917;stroke-width:2.5;stroke-miterlimit:10;" width="151.327" height="103.264"/>
			
				<rect id="XMLID_10425_" x="330.204" y="641.795" style="fill:#E25959;stroke:#640917;stroke-width:2.5;stroke-linecap:round;stroke-miterlimit:10;" width="151.327" height="33.122"/>
			
				<rect id="XMLID_10424_" x="280.521" y="641.795" style="fill:#E25959;stroke:#640917;stroke-width:2.5;stroke-linecap:round;stroke-miterlimit:10;" width="49.683" height="33.122"/>
			
				<polyline id="XMLID_10423_" style="fill:#E25959;stroke:#640917;stroke-width:2.5;stroke-linecap:round;stroke-miterlimit:10;" points="
				481.531,730.6 481.531,745.059 330.204,745.059 330.204,730.6 			"/>
			
				<rect id="XMLID_10422_" x="355.406" y="696.758" style="fill:#F7F2EC;stroke:#640917;stroke-width:2.5;stroke-miterlimit:10;" width="18.001" height="48.3"/>
			
				<rect id="XMLID_10421_" x="360.446" y="700.718" style="fill:#C0DFE2;stroke:#640917;stroke-width:2.5;stroke-linecap:round;stroke-miterlimit:10;" width="8.101" height="34.682"/>
			<rect id="XMLID_10420_" x="386.368" y="696.758" style="fill:#C0DFE2;" width="31.922" height="25.353"/>
			
				<rect id="XMLID_10419_" x="384.298" y="720.235" style="fill:#F7F2EC;stroke:#640917;stroke-width:2.5;stroke-miterlimit:10;" width="36.062" height="3.751"/>
			<polygon id="XMLID_10418_" style="opacity:0.47;fill:#F7F2EC;" points="390.508,720.235 400.408,696.758 404.543,696.758 
				395.008,720.235 			"/>
			<polygon id="XMLID_10417_" style="opacity:0.47;fill:#F7F2EC;" points="397.078,720.235 406.979,696.758 409.434,696.758 
				399.898,720.235 			"/>
			
				<rect id="XMLID_10416_" x="386.368" y="696.758" style="fill:none;stroke:#640917;stroke-width:2.5;stroke-linecap:round;stroke-miterlimit:10;" width="31.922" height="23.477"/>
			
				<line id="XMLID_10415_" style="fill:#F7F2EC;stroke:#640917;stroke-width:2.5;stroke-miterlimit:10;" x1="386.368" y1="705.879" x2="418.29" y2="705.879"/>
			<rect id="XMLID_10414_" x="437.311" y="696.758" style="fill:#C0DFE2;" width="31.922" height="25.353"/>
			
				<polygon id="XMLID_10413_" style="fill:#C43F3F;stroke:#640917;stroke-width:2.5;stroke-linecap:round;stroke-linejoin:round;stroke-miterlimit:10;" points="
				498.388,546.656 427.316,581.131 427.316,572.752 498.388,538.48 			"/>
			
				<rect id="XMLID_10411_" x="435.241" y="720.235" style="fill:#F7F2EC;stroke:#640917;stroke-width:2.5;stroke-miterlimit:10;" width="36.062" height="3.751"/>
			<polygon id="XMLID_10410_" style="opacity:0.47;fill:#F7F2EC;" points="441.451,720.235 451.352,696.758 455.486,696.758 
				445.951,720.235 			"/>
			<polygon id="XMLID_10409_" style="opacity:0.47;fill:#F7F2EC;" points="448.021,720.235 457.922,696.758 460.377,696.758 
				450.842,720.235 			"/>
			
				<rect id="XMLID_10408_" x="437.311" y="696.758" style="fill:none;stroke:#640917;stroke-width:2.5;stroke-linecap:round;stroke-miterlimit:10;" width="31.922" height="23.477"/>
			
				<line id="XMLID_10407_" style="fill:#F7F2EC;stroke:#640917;stroke-width:2.5;stroke-miterlimit:10;" x1="437.311" y1="705.879" x2="469.233" y2="705.879"/>
			<rect id="XMLID_10406_" x="319.884" y="641.795" style="opacity:0.13;fill:#640917;" width="10.321" height="103.264"/>
			
				<rect id="XMLID_10405_" x="288.539" y="402.741" style="fill:#E25959;stroke:#640917;stroke-width:2.5;stroke-linecap:round;stroke-miterlimit:10;" width="50.403" height="17.281"/>
			
				<polygon id="XMLID_10404_" style="fill:#E25959;stroke:#640917;stroke-width:2.5;stroke-linecap:round;stroke-miterlimit:10;" points="
				333.538,470.907 292.056,470.907 292.942,449.781 332.508,449.781 			"/>
			
				<polygon id="XMLID_10403_" style="fill:#E25959;stroke:#640917;stroke-width:2.5;stroke-linecap:round;stroke-miterlimit:10;" points="
				335.684,514.686 290.213,514.686 291.099,493.567 334.647,493.567 			"/>
			
				<polygon id="XMLID_10402_" style="fill:#E25959;stroke:#640917;stroke-width:2.5;stroke-linecap:round;stroke-miterlimit:10;" points="
				337.83,558.464 288.37,558.464 289.263,537.346 336.793,537.346 			"/>
			
				<polygon id="XMLID_10401_" style="fill:#E25959;stroke:#640917;stroke-width:2.5;stroke-linecap:round;stroke-miterlimit:10;" points="
				339.968,602.25 286.526,602.25 287.419,581.131 338.938,581.131 			"/>
			
				<polygon id="XMLID_10400_" style="fill:#C43F3F;stroke:#640917;stroke-width:2.5;stroke-linecap:round;stroke-linejoin:round;stroke-miterlimit:10;" points="
				427.316,546.656 355.406,581.131 339,581.131 339,573.23 412.25,540.23 427.316,538.73 			"/>
			<path id="XMLID_10399_" style="fill:#F7F2EC;stroke:#640917;stroke-width:2.5;stroke-linecap:round;stroke-miterlimit:10;" d="
				M499.226,546.656"/>
			<path id="XMLID_10398_" style="fill:#F7F2EC;stroke:#640917;stroke-width:2.5;stroke-linecap:round;stroke-miterlimit:10;" d="
				M427.316,581.131"/>
			<path id="XMLID_10397_" style="fill:#F7F2EC;stroke:#640917;stroke-width:2.5;stroke-linecap:round;stroke-miterlimit:10;" d="
				M500.949,581.131"/>
			<polygon id="XMLID_10396_" style="opacity:0.13;fill:#640917;" points="355.406,589.444 355.406,582.424 427.316,547.397 
				427.316,555.062 			"/>
			<polygon id="XMLID_10395_" style="opacity:0.13;fill:#640917;" points="427.316,588.703 427.316,581.682 499.226,546.656 
				499.226,554.321 			"/>
			<polygon id="XMLID_10394_" style="opacity:0.13;fill:#640917;" points="498.949,589.444 498.949,582.424 570.859,547.397 
				570.859,555.062 			"/>
			
				<rect id="XMLID_10393_" x="373.407" y="610.09" style="fill:#C0DFE2;stroke:#640917;stroke-width:2.5;stroke-linecap:round;stroke-miterlimit:10;" width="17.086" height="5.154"/>
			
				<rect id="XMLID_10392_" x="373.407" y="621.041" style="fill:#C0DFE2;stroke:#640917;stroke-width:2.5;stroke-linecap:round;stroke-miterlimit:10;" width="17.086" height="5.153"/>
			
				<rect id="XMLID_10391_" x="397.556" y="610.09" style="fill:#C0DFE2;stroke:#640917;stroke-width:2.5;stroke-linecap:round;stroke-miterlimit:10;" width="17.086" height="5.154"/>
			
				<rect id="XMLID_10390_" x="397.556" y="621.041" style="fill:#C0DFE2;stroke:#640917;stroke-width:2.5;stroke-linecap:round;stroke-miterlimit:10;" width="17.086" height="5.153"/>
			
				<rect id="XMLID_10389_" x="439.759" y="610.09" style="fill:#C0DFE2;stroke:#640917;stroke-width:2.5;stroke-linecap:round;stroke-miterlimit:10;" width="17.086" height="5.154"/>
			
				<rect id="XMLID_10388_" x="439.759" y="621.041" style="fill:#C0DFE2;stroke:#640917;stroke-width:2.5;stroke-linecap:round;stroke-miterlimit:10;" width="17.086" height="5.153"/>
			
				<rect id="XMLID_10387_" x="463.908" y="610.09" style="fill:#C0DFE2;stroke:#640917;stroke-width:2.5;stroke-linecap:round;stroke-miterlimit:10;" width="17.086" height="5.154"/>
			
				<rect id="XMLID_10386_" x="463.908" y="621.041" style="fill:#C0DFE2;stroke:#640917;stroke-width:2.5;stroke-linecap:round;stroke-miterlimit:10;" width="17.086" height="5.153"/>
			
				<rect id="XMLID_10385_" x="518.325" y="610.09" style="fill:#C0DFE2;stroke:#640917;stroke-width:2.5;stroke-linecap:round;stroke-miterlimit:10;" width="17.086" height="5.154"/>
			
				<rect id="XMLID_10384_" x="518.325" y="621.041" style="fill:#C0DFE2;stroke:#640917;stroke-width:2.5;stroke-linecap:round;stroke-miterlimit:10;" width="17.086" height="5.153"/>
			
				<rect id="XMLID_10383_" x="542.475" y="610.09" style="fill:#C0DFE2;stroke:#640917;stroke-width:2.5;stroke-linecap:round;stroke-miterlimit:10;" width="17.086" height="5.154"/>
			
				<rect id="XMLID_10382_" x="542.475" y="621.041" style="fill:#C0DFE2;stroke:#640917;stroke-width:2.5;stroke-linecap:round;stroke-miterlimit:10;" width="17.086" height="5.153"/>
			
				<rect id="XMLID_10381_" x="481.531" y="652.356" style="fill:#F7F2EC;stroke:#640917;stroke-width:2.5;stroke-miterlimit:10;" width="137.411" height="92.703"/>
			
				<rect id="XMLID_10658_" x="520.911" y="678.98" transform="matrix(-1 -1.224647e-16 1.224647e-16 -1 1109.9111 1423.2197)" style="opacity:0.13;fill:#640917;" width="68.089" height="65.26"/>
			
				<rect id="XMLID_10380_" x="547" y="683.615" transform="matrix(-1 -1.224647e-16 1.224647e-16 -1 1181.5 1428.6736)" style="fill:#F7F2EC;stroke:#640917;stroke-width:2.5;stroke-miterlimit:10;" width="87.5" height="61.444"/>
			
				<rect id="XMLID_10378_" x="535.411" y="683.615" transform="matrix(-1 -1.224647e-16 1.224647e-16 -1 1087.4111 1427.8549)" style="fill:#E4D4D0;stroke:#640917;stroke-width:2.5;stroke-miterlimit:10;" width="16.589" height="60.625"/>
			
				<rect id="XMLID_10377_" x="532.411" y="669.918" transform="matrix(-1 -1.224647e-16 1.224647e-16 -1 1123.8969 1353.4609)" style="fill:#F2B45A;stroke:#640917;stroke-width:2.5;stroke-miterlimit:10;" width="59.075" height="13.626"/>
			<path id="XMLID_10376_" style="fill:#F2B45A;stroke:#640917;stroke-width:2.5;stroke-miterlimit:10;" d="M633.703,683.615
				h-14.761v-13.738h1.023C627.552,669.877,633.703,676.028,633.703,683.615L633.703,683.615z"/>
			<path id="XMLID_10375_" style="fill:#FFD671;stroke:#640917;stroke-width:2.5;stroke-miterlimit:10;" d="M615.341,652.356H599.5
				v-10.753c0-13.009-10.584-23.593-23.593-23.593h-5.067v-15.841h5.067c21.744,0,39.434,17.69,39.434,39.434V652.356z"/>
			
				<rect id="XMLID_10379_" x="554.684" y="669.877" transform="matrix(-1 -1.224647e-16 1.224647e-16 -1 1193.899 1353.4916)" style="fill:#FFD671;stroke:#640917;stroke-width:2.5;stroke-miterlimit:10;" width="84.53" height="13.738"/>
			
				<rect id="XMLID_10657_" x="552.351" y="684.21" transform="matrix(-1 -1.224647e-16 1.224647e-16 -1 1186.3912 1375.0229)" style="fill:#E4D4D0;" width="81.689" height="6.604"/>
			
				<path id="XMLID_10374_" style="fill:#FFD671;stroke:#FFFFFF;stroke-width:2.4372;stroke-linecap:round;stroke-miterlimit:10;" d="
				M602.052,619.512c5.494,6.778,8.789,15.407,8.789,24.792"/>
			
				<path id="XMLID_10373_" style="fill:#FFD671;stroke:#FFFFFF;stroke-width:2.4372;stroke-linecap:round;stroke-miterlimit:10;" d="
				M590.409,609.757c2.404,1.327,4.655,2.898,6.721,4.68"/>
		</g>
		
			<rect id="XMLID_10371_" x="172.391" y="641.795" style="fill:#F7F2EC;stroke:#640917;stroke-width:2.5;stroke-miterlimit:10;" width="108.13" height="103.102"/>
		<path id="XMLID_10370_" style="fill:#F7F2EC;stroke:#640917;stroke-width:2.5;stroke-miterlimit:10;" d="M280.521,674.813H170.162
			c-4.5,0-8.148-3.648-8.148-8.148l0,0c0-4.5,3.648-8.148,8.148-8.148h110.359V674.813z"/>
		<path id="XMLID_10369_" style="fill:#F7F2EC;stroke:#640917;stroke-width:2.5;stroke-miterlimit:10;" d="M280.521,728.336H170.162
			c-4.5,0-8.148-3.648-8.148-8.148l0,0c0-4.5,3.648-8.148,8.148-8.148h110.359V728.336z"/>
		<rect id="XMLID_10368_" x="172.391" y="674.917" style="opacity:0.13;fill:#640917;" width="108.13" height="8.698"/>
		<rect id="XMLID_10367_" x="172.391" y="728.336" style="opacity:0.13;fill:#640917;" width="108.13" height="8.698"/>
		
			<rect id="XMLID_10366_" x="191.338" y="414.82" style="fill:#F7F2EC;stroke:#640917;stroke-width:2.5;stroke-miterlimit:10;" width="39.887" height="11.554"/>
		
			<line id="XMLID_10365_" style="fill:#F7F2EC;stroke:#640917;stroke-width:2.5;stroke-linecap:round;stroke-miterlimit:10;" x1="191.338" y1="437.409" x2="233" y2="437.409"/>
		
			<line id="XMLID_10364_" style="fill:#F7F2EC;stroke:#640917;stroke-width:2.5;stroke-linecap:round;stroke-miterlimit:10;" x1="191.338" y1="473.973" x2="233" y2="473.973"/>
		
			<line id="XMLID_10363_" style="fill:#F7F2EC;stroke:#640917;stroke-width:2.5;stroke-linecap:round;stroke-miterlimit:10;" x1="191.338" y1="514.984" x2="233" y2="514.984"/>
		
			<rect id="XMLID_10362_" x="221.113" y="437.409" style="fill:none;stroke:#640917;stroke-width:2.5;stroke-linecap:round;stroke-miterlimit:10;" width="9.459" height="204.386"/>
		<path id="XMLID_10361_" style="opacity:0.13;fill:#640917;" d="M195.12,696.568c0,3.684-2.986,6.67-6.67,6.67
			c-3.684,0-6.67-2.986-6.67-6.67s2.986-6.67,6.67-6.67C192.133,689.898,195.12,692.884,195.12,696.568z"/>
		<path id="XMLID_10360_" style="opacity:0.13;fill:#640917;" d="M221.268,696.568c0,3.684-2.986,6.67-6.67,6.67
			s-6.671-2.986-6.671-6.67s2.986-6.67,6.671-6.67S221.268,692.884,221.268,696.568z"/>
		<path id="XMLID_10359_" style="opacity:0.13;fill:#640917;" d="M246.013,696.568c0,3.684-2.987,6.67-6.671,6.67
			c-3.684,0-6.67-2.986-6.67-6.67s2.986-6.67,6.67-6.67C243.026,689.898,246.013,692.884,246.013,696.568z"/>
		<path id="XMLID_10358_" style="opacity:0.13;fill:#640917;" d="M271.401,696.568c0,3.684-2.986,6.67-6.671,6.67
			c-3.684,0-6.67-2.986-6.67-6.67s2.986-6.67,6.67-6.67C268.414,689.898,271.401,692.884,271.401,696.568z"/>
		<g id="XMLID_10348_">
			
				<path id="XMLID_10357_" style="fill:none;stroke:#640917;stroke-width:2.5;stroke-linecap:round;stroke-linejoin:round;stroke-miterlimit:10;" d="
				M83.227,745.263l27.157-168.326c0.231-1.435,2.296-1.435,2.527,0l27.157,168.326"/>
			
				<polyline id="XMLID_10356_" style="fill:none;stroke:#640917;stroke-width:2.5;stroke-linecap:round;stroke-linejoin:round;stroke-miterlimit:10;" points="
				106.566,600.602 119.725,619.169 99.771,642.12 127.688,668.53 89.884,704 			"/>
			
				<polyline id="XMLID_10355_" style="fill:none;stroke:#640917;stroke-width:2.5;stroke-linecap:round;stroke-linejoin:round;stroke-miterlimit:10;" points="
				116.729,600.602 104.081,619.169 123.449,642.253 95.601,668.562 133.403,704 			"/>
			
				<line id="XMLID_10354_" style="fill:none;stroke:#640917;stroke-width:2.5;stroke-linecap:round;stroke-linejoin:round;stroke-miterlimit:10;" x1="82.987" y1="602.629" x2="140.308" y2="602.629"/>
			
				<line id="XMLID_10353_" style="fill:none;stroke:#640917;stroke-width:2.5;stroke-linecap:round;stroke-linejoin:round;stroke-miterlimit:10;" x1="82.987" y1="612.584" x2="140.308" y2="612.584"/>
			
				<path id="XMLID_10352_" style="fill:#640917;stroke:#640917;stroke-width:2.5;stroke-linecap:round;stroke-linejoin:round;stroke-miterlimit:10;" d="
				M93.494,602.629c0,1.994-1.616,3.61-3.61,3.61c-1.994,0-3.61-1.616-3.61-3.61c0-1.994,1.616-3.61,3.61-3.61
				C91.878,599.019,93.494,600.636,93.494,602.629z"/>
			
				<path id="XMLID_10351_" style="fill:#640917;stroke:#640917;stroke-width:2.5;stroke-linecap:round;stroke-linejoin:round;stroke-miterlimit:10;" d="
				M138.454,602.629c0,1.994-1.616,3.61-3.61,3.61s-3.61-1.616-3.61-3.61c0-1.994,1.616-3.61,3.61-3.61
				S138.454,600.636,138.454,602.629z"/>
			
				<circle id="XMLID_10350_" style="fill:#640917;stroke:#640917;stroke-width:2.5;stroke-linecap:round;stroke-linejoin:round;stroke-miterlimit:10;" cx="134.844" cy="612.584" r="3.61"/>
			
				<path id="XMLID_10349_" style="fill:#640917;stroke:#640917;stroke-width:2.5;stroke-linecap:round;stroke-linejoin:round;stroke-miterlimit:10;" d="
				M93.494,612.584c0,1.994-1.616,3.61-3.61,3.61c-1.994,0-3.61-1.616-3.61-3.61s1.616-3.61,3.61-3.61
				C91.878,608.974,93.494,610.59,93.494,612.584z"/>
		</g>
		
			<path id="XMLID_10347_" style="fill:none;stroke:#640917;stroke-width:2.5;stroke-linecap:round;stroke-linejoin:round;stroke-miterlimit:10;" d="
			M649.519,602.629c0,0,40.251,11.807,79.567,11.807"/>
		
			<path id="XMLID_10346_" style="fill:none;stroke:#640917;stroke-width:2.5;stroke-linecap:round;stroke-linejoin:round;stroke-miterlimit:10;" d="
			M649.519,613.534c0,0,40.251,11.807,79.567,11.807"/>
		<path style="fill:none;stroke:#640917;stroke-width:2.5;stroke-linecap:round;stroke-linejoin:round;stroke-miterlimit:10;" d="
			M46,611.73c24.76-3.49,43.88-9.1,43.88-9.1"/>
		<path style="fill:none;stroke:#640917;stroke-width:2.5;stroke-linecap:round;stroke-linejoin:round;stroke-miterlimit:10;" d="
			M46,622.63c24.76-3.49,43.88-9.1,43.88-9.1"/>
		<rect id="XMLID_10342_" x="481.531" y="652.356" style="opacity:0.13;fill:#640917;" width="17.695" height="92.85"/>
		<rect id="XMLID_10338_" x="264.73" y="641.795" style="opacity:0.13;fill:#640917;" width="15.791" height="103.261"/>
		<path id="XMLID_10337_" style="opacity:0.13;fill:#640917;" d="M338.938,581.131c0.357-0.572,2.941,60.161,2.941,60.161h13.526
			l0-58.869L338.938,581.131z"/>
		<path id="XMLID_10335_" style="fill:none;stroke:#640917;stroke-width:2.5;stroke-miterlimit:10;" d="M592.31,400.12
			c0.219-0.682,0.409-1.379,0.57-2.09c1.261-5.57,0.499-11.123-1.793-15.901c6.2-2.774,10.526-8.984,10.526-16.215
			c0-3.562-1.059-6.873-2.864-9.654c5.58-2.996,9.377-8.884,9.377-15.661c0-8.907-6.561-16.262-15.11-17.548
			c-0.372-13.901-10.223-25.431-23.329-28.365c0.384-2.217,0.595-4.493,0.595-6.82c0-21.949-17.793-39.742-39.742-39.742
			c-1.056,0-2.098,0.054-3.132,0.134c-9.204-22.818-31.543-38.929-57.657-38.929c-19.578,0-37.032,9.06-48.427,23.205
			c-3.131-0.486-6.339-0.741-9.606-0.741c-18.765,0-35.575,8.327-46.973,21.473c-1.926-0.281-3.893-0.433-5.897-0.433
			c-22.33,0-40.432,18.102-40.432,40.432c0,16.707,10.134,31.045,24.59,37.208c-2.466,5.174-3.85,10.963-3.85,17.076
			c0,21.949,17.793,39.742,39.742,39.742c5.876,0,11.449-1.286,16.468-3.575c7.01,11.29,19.515,18.811,33.781,18.811
			c15.964,0,29.721-9.417,36.041-22.995c3.845,2.037,8.227,3.195,12.881,3.195c4.526,0,8.793-1.098,12.561-3.031
			c2.231,4.536,6.329,7.973,11.301,9.316c-1.507,3.168-2.353,6.712-2.353,10.454"/>
		<path id="XMLID_10334_" style="fill:none;stroke:#640917;stroke-width:2.5;stroke-miterlimit:10;" d="M302.657,402.838
			c0.251-1.586,0.864-3.05,1.748-4.311c-2.497-0.666-4.725-1.985-6.479-3.779c-1.241,0.422-2.566,0.66-3.95,0.66
			c-3.65,0-6.918-1.6-9.169-4.126c-2.661,1.248-5.621,1.966-8.755,1.966c-4.891,0-9.377-1.707-12.917-4.546
			c-3.177,1.1-6.584,1.705-10.135,1.705c-8.14,0-15.542-3.144-21.071-8.278c-2.912,1.704-6.291,2.698-9.909,2.698
			c-8.735,0-16.13-5.699-18.696-13.577c-5.583,10.468-16.607,17.595-29.299,17.595c-18.329,0-33.188-14.859-33.188-33.188
			c0-12.083,6.459-22.655,16.11-28.459c-0.157-1.483-0.241-2.987-0.241-4.511c0-23.456,19.015-42.471,42.471-42.471
			c13.849,0,26.146,6.632,33.899,16.889c5.386-4.529,12.334-7.261,19.922-7.261c15.248,0,27.914,11.02,30.492,25.528
			c8.403,0.526,15.06,7.488,15.06,16.023c0,1.734-0.282,3.401-0.791,4.966c11.967,0.545,21.509,10.39,21.509,22.491
			c0,5.056-1.684,9.706-4.495,13.466c4.456,2.394,7.487,7.097,7.487,12.509c0,4.137-1.781,7.849-4.605,10.444
			c2.759,1.435,4.793,4.069,5.402,7.215"/>
	</g>
	<g id="XMLID_9349_">
		
			<path id="XMLID_9368_" style="fill:none;stroke:#640917;stroke-width:2.5;stroke-linecap:round;stroke-linejoin:round;stroke-miterlimit:10;" d="
			M723.915,743.664l25.176-154.185c0.232-1.435,2.296-1.435,2.527,0l25.066,155.365"/>
		
			<polyline id="XMLID_9367_" style="fill:none;stroke:#640917;stroke-width:2.5;stroke-linecap:round;stroke-linejoin:round;stroke-miterlimit:10;" points="
			745.272,613.144 758.431,631.711 738.478,654.662 766.395,681.071 728.59,716.542 		"/>
		
			<polyline id="XMLID_9366_" style="fill:none;stroke:#640917;stroke-width:2.5;stroke-linecap:round;stroke-linejoin:round;stroke-miterlimit:10;" points="
			755.435,613.144 742.787,631.711 762.155,654.795 734.308,681.104 772.109,716.542 		"/>
		
			<line id="XMLID_9365_" style="fill:none;stroke:#640917;stroke-width:2.5;stroke-linecap:round;stroke-linejoin:round;stroke-miterlimit:10;" x1="721.693" y1="615.171" x2="779.015" y2="615.171"/>
		
			<line id="XMLID_9364_" style="fill:none;stroke:#640917;stroke-width:2.5;stroke-linecap:round;stroke-linejoin:round;stroke-miterlimit:10;" x1="721.693" y1="625.126" x2="779.015" y2="625.126"/>
		
			<path id="XMLID_9363_" style="fill:#640917;stroke:#640917;stroke-width:2.5;stroke-linecap:round;stroke-linejoin:round;stroke-miterlimit:10;" d="
			M732.2,615.171c0,1.994-1.616,3.61-3.61,3.61c-1.994,0-3.61-1.616-3.61-3.61s1.616-3.61,3.61-3.61
			C730.584,611.561,732.2,613.177,732.2,615.171z"/>
		
			<path id="XMLID_9358_" style="fill:#640917;stroke:#640917;stroke-width:2.5;stroke-linecap:round;stroke-linejoin:round;stroke-miterlimit:10;" d="
			M777.16,615.171c0,1.994-1.616,3.61-3.61,3.61s-3.61-1.616-3.61-3.61s1.616-3.61,3.61-3.61S777.16,613.177,777.16,615.171z"/>
		
			<path id="XMLID_9355_" style="fill:#640917;stroke:#640917;stroke-width:2.5;stroke-linecap:round;stroke-linejoin:round;stroke-miterlimit:10;" d="
			M777.16,625.126c0,1.994-1.616,3.61-3.61,3.61s-3.61-1.616-3.61-3.61c0-1.994,1.616-3.61,3.61-3.61S777.16,623.132,777.16,625.126
			z"/>
		
			<path id="XMLID_9350_" style="fill:#640917;stroke:#640917;stroke-width:2.5;stroke-linecap:round;stroke-linejoin:round;stroke-miterlimit:10;" d="
			M732.2,625.126c0,1.994-1.616,3.61-3.61,3.61c-1.994,0-3.61-1.616-3.61-3.61c0-1.994,1.616-3.61,3.61-3.61
			C730.584,621.516,732.2,623.132,732.2,625.126z"/>
	</g>
	
		<polygon id="XMLID_10276_" style="fill:#E25959;stroke:#640917;stroke-width:2.5;stroke-linecap:round;stroke-linejoin:round;stroke-miterlimit:10;" points="
		427.316,538.323 355.406,572.798 338.938,572.798 411.205,538.323 	"/>
	
		<polygon id="XMLID_10638_" style="fill:#E25959;stroke:#640917;stroke-width:2.5;stroke-linecap:round;stroke-linejoin:round;stroke-miterlimit:10;" points="
		498.388,538.323 427.316,572.798 427.316,564.419 482.277,538.323 	"/>
	
		<polygon id="XMLID_10637_" style="fill:#C43F3F;stroke:#640917;stroke-width:2.5;stroke-linecap:round;stroke-linejoin:round;stroke-miterlimit:10;" points="
		570.388,546.656 499.316,581.131 499.316,572.752 570.388,538.48 	"/>
	
		<polygon id="XMLID_10412_" style="fill:#E25959;stroke:#640917;stroke-width:2.5;stroke-linecap:round;stroke-linejoin:round;stroke-miterlimit:10;" points="
		570.388,538.323 499.316,572.798 499.316,564.419 554.277,538.323 	"/>
	
		<rect id="XMLID_10339_" x="481.055" y="399.792" style="fill:none;stroke:#640917;stroke-width:2.5;stroke-miterlimit:10;" width="140.614" height="15.751"/>
</g>
<line id="XMLID_45_" style="fill:none;stroke:#640917;stroke-width:2.5;stroke-linecap:round;stroke-linejoin:round;stroke-miterlimit:10;" x1="23.498" y1="745.459" x2="881" y2="745.459"/>
</svg>
